<svg xmlns="http://www.w3.org/2000/svg" version="1.1" xmlns:xlink="http://www.w3.org/1999/xlink" xmlns:svgjs="http://svgjs.com/svgjs" width="1080" height="720" preserveAspectRatio="none" viewBox="0 0 1080 720"><g mask="url(&quot;#SvgjsMask2443&quot;)" fill="none"><rect width="1080" height="720" x="0" y="0" fill="url(#SvgjsLinearGradient2444)"></rect><path d="M378.7542902283031 716.211990000929L491.6560332812894 698.330110615817 473.7741538961776 585.4283675628308 360.87241084319123 603.3102469479426z" fill="rgba(15, 24, 203, 0.13)" class="triangle-float3"></path><path d="M1034.9603086128493 196.6945349526861L1100.9424106406461 5.06859651164288 909.3164721996028-60.91350551615383 843.3343701718061 130.71243292488936z" fill="rgba(15, 24, 203, 0.13)" class="triangle-float3"></path><path d="M541.0769566084911 413.0218276669822L538.9621626695671 291.86536404906155 417.8056990516464 293.98015798798554 419.92049299057044 415.1366216059062z" fill="rgba(15, 24, 203, 0.13)" class="triangle-float2"></path><path d="M554.1650129889191 377.0703886398223L604.0674509595956 489.1530994294359 716.1501617492092 439.25066145875934 666.2477237785326 327.16795066914574z" fill="rgba(15, 24, 203, 0.13)" class="triangle-float3"></path><path d="M613.51343880334 261.8388282021329L745.7784604540824 172.62494461835917 656.5645768703087 40.3599229676168 524.2995552195663 129.57380655139056z" fill="rgba(15, 24, 203, 0.13)" class="triangle-float3"></path><path d="M82.11429935352766 255.98248488102922L170.35498227599783 335.4347526560246 249.8072500509932 247.19406973355444 161.56656712852305 167.74180195855905z" fill="rgba(15, 24, 203, 0.13)" class="triangle-float3"></path><path d="M610.084658696415 370.0462046868556L642.8096275123539 511.79361759979645 784.5570404252948 479.06864878385744 751.8320716093558 337.3212358709166z" fill="rgba(15, 24, 203, 0.13)" class="triangle-float1"></path><path d="M290.1938028832822-47.97752968143325L255.33281812562242 149.7289393886528 453.0392871957085 184.5899241463126 487.90027195336825-13.11654492377346z" fill="rgba(15, 24, 203, 0.13)" class="triangle-float1"></path><path d="M464.35225610126184 52.21747131533527L421.66067342956865-58.997903857164026 310.44529825706934-16.306321185470843 353.13688092876254 94.90905398702844z" fill="rgba(15, 24, 203, 0.13)" class="triangle-float3"></path><path d="M540.9553565057024 44.186362439803545L441.1982843780045-62.79000031361508 334.22192162458583 36.96707181408286 433.97899375228377 143.94343456750147z" fill="rgba(15, 24, 203, 0.13)" class="triangle-float3"></path><path d="M589.1149545356546 537.1215287563274L529.9739431059535 658.3785716855289 651.230986035155 717.51958311523 710.3719974648561 596.2625401860286z" fill="rgba(15, 24, 203, 0.13)" class="triangle-float1"></path><path d="M704.4825375319579 294.5048943423693L647.3929610561745 118.80124467854318 471.6893113923484 175.89082115432657 528.7788878681317 351.59447081815273z" fill="rgba(15, 24, 203, 0.13)" class="triangle-float1"></path><path d="M1064.5806470530745 690.3097549771751L1009.2023904823593 571.5507005155225 890.4433360207069 626.9289570862377 945.8215925914219 745.6880115478903z" fill="rgba(15, 24, 203, 0.13)" class="triangle-float3"></path><path d="M333.56479138719436 545.9315801758523L231.92758539540404 680.8087080712246 366.8047132907763 782.4459140630149 468.4419192825667 647.5687861676427z" fill="rgba(15, 24, 203, 0.13)" class="triangle-float2"></path><path d="M310.91850227012856 430.67790492510596L282.0352301184436 305.57070842969904 156.9280336230367 334.45398058138403 185.81130577472166 459.5611770767909z" fill="rgba(15, 24, 203, 0.13)" class="triangle-float3"></path><path d="M365.43049570878424 524.9722088471874L573.6038629647963 476.9116001082743 525.5432542258832 268.73823285226223 317.3698869698711 316.79884159117535z" fill="rgba(15, 24, 203, 0.13)" class="triangle-float2"></path><path d="M236.5224043858517 437.0645859504376L236.52240438585167 301.18191194764574 100.63973038305983 301.1819119476458 100.63973038305986 437.0645859504376z" fill="rgba(15, 24, 203, 0.13)" class="triangle-float1"></path><path d="M188.7922117382743 549.4383476318101L359.98712000880056 570.4584392726197 381.0072116496102 399.26353100209343 209.81230337908391 378.2434393612838z" fill="rgba(15, 24, 203, 0.13)" class="triangle-float2"></path><path d="M486.56982034356696 257.37014994107494L581.8364664086289 130.94704060729006 455.413357074844 35.68039454222816 360.14671100978205 162.10350387601306z" fill="rgba(15, 24, 203, 0.13)" class="triangle-float1"></path><path d="M514.6611594073701 158.54903288230582L629.5287375174822 16.69938729606045 487.6790919312368-98.16819081405168 372.81151382112466 43.681454772193675z" fill="rgba(15, 24, 203, 0.13)" class="triangle-float3"></path></g><defs><mask id="SvgjsMask2443"><rect width="1080" height="720" fill="#ffffff"></rect></mask><linearGradient x1="50%" y1="0%" x2="50%" y2="100%" gradientUnits="userSpaceOnUse" id="SvgjsLinearGradient2444"><stop stop-color="#0e2a47" offset="0"></stop><stop stop-color="rgba(48, 0, 158, 1)" offset="1"></stop></linearGradient><style>
            @keyframes float1 {
                0%{transform: translate(0, 0)}
                50%{transform: translate(-10px, 0)}
                100%{transform: translate(0, 0)}
            }

            .triangle-float1 {
                animation: float1 5s infinite;
            }

            @keyframes float2 {
                0%{transform: translate(0, 0)}
                50%{transform: translate(-5px, -5px)}
                100%{transform: translate(0, 0)}
            }

            .triangle-float2 {
                animation: float2 4s infinite;
            }

            @keyframes float3 {
                0%{transform: translate(0, 0)}
                50%{transform: translate(0, -10px)}
                100%{transform: translate(0, 0)}
            }

            .triangle-float3 {
                animation: float3 6s infinite;
            }
        </style></defs></svg>